<?xml version="1.0" standalone="no"?>
<!DOCTYPE svg PUBLIC "-//W3C//DTD SVG 20010904//EN"
 "http://www.w3.org/TR/2001/REC-SVG-20010904/DTD/svg10.dtd">
<svg version="1.0" xmlns="http://www.w3.org/2000/svg"
 width="1024.000000pt" height="512.000000pt" viewBox="0 0 1024.000000 512.000000"
 preserveAspectRatio="xMidYMid meet">

<g transform="translate(0.000000,512.000000) scale(0.100000,-0.100000)"
fill="#000000" stroke="none">
<path d="M15 3043 c23 -55 65 -104 120 -138 l48 -30 184 -3 183 -3 0 -415 0
-414 105 0 105 0 0 415 0 415 173 0 c159 0 176 2 222 24 28 12 65 38 83 57 33
33 72 98 72 119 0 7 -208 10 -655 10 l-655 0 15 -37z"/>
<path d="M2355 3058 c21 -67 88 -137 162 -169 41 -18 74 -19 433 -19 l388 0
63 33 c66 34 108 78 134 140 l15 37 -601 0 -600 0 6 -22z"/>
<path d="M4662 2773 l3 -308 468 -3 467 -2 0 -105 0 -104 -382 -3 c-382 -3
-383 -3 -428 -27 -66 -35 -117 -77 -150 -126 -17 -24 -30 -46 -30 -49 0 -3
268 -6 595 -6 l595 0 0 315 0 315 -465 0 -465 0 0 100 0 100 349 0 c382 0 390
1 477 61 44 30 104 109 104 136 0 11 -108 13 -570 13 l-570 0 2 -307z"/>
<path d="M6950 2560 l0 -520 474 0 474 0 48 33 c47 32 95 96 109 144 l6 23
-453 2 -453 3 -3 418 -2 417 -100 0 -100 0 0 -520z"/>
<path d="M9045 3058 c21 -68 95 -145 166 -172 39 -15 89 -16 445 -14 l401 3
48 30 c55 34 97 83 120 138 l15 37 -601 0 -600 0 6 -22z"/>
<path d="M2355 2648 c19 -64 85 -136 152 -168 41 -19 64 -20 440 -20 379 0
400 1 443 21 58 26 106 72 136 131 13 26 24 50 24 53 0 3 -270 5 -601 5 l-600
0 6 -22z"/>
<path d="M9070 2355 l0 -315 100 0 100 0 0 210 0 210 370 0 370 0 0 -210 0
-210 100 0 100 0 0 315 0 315 -570 0 -570 0 0 -315z"/>
<path d="M2350 2238 c0 -25 61 -117 93 -142 73 -56 73 -56 509 -56 371 0 406
2 444 19 64 29 128 101 148 169 l7 22 -600 0 c-474 0 -601 -3 -601 -12z"/>
</g>
</svg>
